<?xml version="1.0" encoding="utf-8"?>
<!-- Generator: Adobe Illustrator 22.0.1, SVG Export Plug-In . SVG Version: 6.00 Build 0)  -->
<svg version="1.1" id="圖層_1" xmlns="http://www.w3.org/2000/svg" xmlns:xlink="http://www.w3.org/1999/xlink" x="0px" y="0px"
	 viewBox="0 0 50 50" style="enable-background:new 0 0 50 50;" xml:space="preserve">
<style type="text/css">
	.st0{fill:#FFFFFF;}
</style>
<g class="st0">
	<rect x="45" width="5" height="5"/>
</g>
<g class="st0">
	<rect x="40" y="5" width="5" height="5"/>
</g>
<g class="st0">
	<rect x="40" y="15" width="5" height="5"/>
</g>
<g class="st0">
	<rect x="40" y="25" width="5" height="5"/>
</g>
<g class="st0">
	<rect x="40" y="35" width="5" height="5"/>
</g>
<g class="st0">
	<rect x="40" y="45" width="5" height="5"/>
</g>
<g class="st0">
	<rect x="30" y="5" width="5" height="5"/>
</g>
<g class="st0">
	<rect x="30" y="15" width="5" height="5"/>
</g>
<g class="st0">
	<rect x="30" y="25" width="5" height="5"/>
</g>
<g class="st0">
	<rect x="30" y="35" width="5" height="5"/>
</g>
<g class="st0">
	<rect x="30" y="45" width="5" height="5"/>
</g>
<g class="st0">
	<rect x="20" y="5" width="5" height="5"/>
</g>
<g class="st0">
	<rect x="20" y="15" width="5" height="5"/>
</g>
<g class="st0">
	<rect x="20" y="25" width="5" height="5"/>
</g>
<g class="st0">
	<rect x="20" y="35" width="5" height="5"/>
</g>
<g class="st0">
	<rect x="20" y="45" width="5" height="5"/>
</g>
<g class="st0">
	<rect x="10" y="5" width="5" height="5"/>
</g>
<g class="st0">
	<rect x="10" y="15" width="5" height="5"/>
</g>
<g class="st0">
	<rect x="10" y="25" width="5" height="5"/>
</g>
<g class="st0">
	<rect x="10" y="35" width="5" height="5"/>
</g>
<g class="st0">
	<rect x="10" y="45" width="5" height="5"/>
</g>
<g class="st0">
	<rect x="0" y="5" width="5" height="5"/>
</g>
<g class="st0">
	<rect x="0" y="15" width="5" height="5"/>
</g>
<g class="st0">
	<rect x="0" y="25" width="5" height="5"/>
</g>
<g class="st0">
	<rect x="0" y="35" width="5" height="5"/>
</g>
<g class="st0">
	<rect x="0" y="45" width="5" height="5"/>
</g>
<g class="st0">
	<rect x="45" y="10" width="5" height="5"/>
</g>
<g class="st0">
	<rect x="45" y="20" width="5" height="5"/>
</g>
<g class="st0">
	<rect x="45" y="30" width="5" height="5"/>
</g>
<g class="st0">
	<rect x="45" y="40" width="5" height="5"/>
</g>
<g class="st0">
	<rect x="35" width="5" height="5"/>
</g>
<g class="st0">
	<rect x="35" y="10" width="5" height="5"/>
</g>
<g class="st0">
	<rect x="35" y="20" width="5" height="5"/>
</g>
<g class="st0">
	<rect x="35" y="30" width="5" height="5"/>
</g>
<g class="st0">
	<rect x="35" y="40" width="5" height="5"/>
</g>
<g class="st0">
	<rect x="25" width="5" height="5"/>
</g>
<g class="st0">
	<rect x="25" y="10" width="5" height="5"/>
</g>
<g class="st0">
	<rect x="25" y="20" width="5" height="5"/>
</g>
<g class="st0">
	<rect x="25" y="30" width="5" height="5"/>
</g>
<g class="st0">
	<rect x="25" y="40" width="5" height="5"/>
</g>
<g class="st0">
	<rect x="15" width="5" height="5"/>
</g>
<g class="st0">
	<rect x="15" y="10" width="5" height="5"/>
</g>
<g class="st0">
	<rect x="15" y="20" width="5" height="5"/>
</g>
<g class="st0">
	<rect x="15" y="30" width="5" height="5"/>
</g>
<g class="st0">
	<rect x="15" y="40" width="5" height="5"/>
</g>
<g class="st0">
	<rect x="5" width="5" height="5"/>
</g>
<g class="st0">
	<rect x="5" y="10" width="5" height="5"/>
</g>
<g class="st0">
	<rect x="5" y="20" width="5" height="5"/>
</g>
<g class="st0">
	<rect x="5" y="30" width="5" height="5"/>
</g>
<g class="st0">
	<rect x="5" y="40" width="5" height="5"/>
</g>
</svg>
